<svg width="169" height="32" viewBox="0 0 169 32" fill="none" xmlns="http://www.w3.org/2000/svg">
<path d="M2.78144 19.9133L2.76498 14.2332L13.7426 1.05676H19.2396L9.23305 12.6646L2.78144 19.9133ZM0 24.7018V1.05676H4.55892V24.7018H0ZM14.4009 24.7018L6.79724 13.1104L9.842 9.84107L19.7663 24.7018H14.4009Z" fill="#C1182E"/>
<path d="M22.3626 24.7018V7.59546H26.5594V10.7327L26.0657 10.1053H26.6088C27.1464 9.20261 27.92 8.4816 28.9294 7.94221C29.9388 7.40282 31.0141 7.13313 32.1552 7.13313C34.0644 7.13313 35.5621 7.71104 36.6483 8.86687C37.7345 10.0117 38.2777 11.5803 38.2777 13.5728V24.7018H33.9162V14.547C33.9162 13.3691 33.631 12.461 33.0604 11.8225C32.5008 11.184 31.656 10.8648 30.5258 10.8648C29.4506 10.8648 28.5454 11.2666 27.8102 12.0702C27.0751 12.8738 26.7075 13.8755 26.7075 15.0753V24.7018H22.3626Z" fill="#C1182E"/>
<path d="M42.8283 24.7018V7.59546H47.1733V24.7018H42.8283ZM45.0008 5.13519C44.2876 5.13519 43.6787 4.88751 43.174 4.39216C42.6693 3.88579 42.4169 3.27485 42.4169 2.55934C42.4169 1.82181 42.6693 1.21087 43.174 0.726523C43.6787 0.242174 44.2876 0 45.0008 0C45.7469 0 46.3614 0.242174 46.8442 0.726523C47.3379 1.21087 47.5848 1.82181 47.5848 2.55934C47.5848 3.27485 47.3379 3.88579 46.8442 4.39216C46.3614 4.88751 45.7469 5.13519 45.0008 5.13519Z" fill="#C1182E"/>
<path d="M59.7687 32C58.496 32 57.3658 31.8459 56.3783 31.5377C55.4018 31.2405 54.535 30.8056 53.7779 30.2332C53.0318 29.6718 52.4448 29.0499 52.0169 28.3674C51.6 27.6959 51.3915 27.3602 51.3915 27.3602L54.8313 25.5934C54.8313 25.5934 54.9794 25.8246 55.2756 26.2869C55.5829 26.7602 55.9449 27.1675 56.3619 27.5088C56.7788 27.85 57.2616 28.1087 57.8102 28.2848C58.3698 28.472 59.0007 28.5655 59.7029 28.5655C61.2609 28.5655 62.4569 28.1307 63.2908 27.2611C64.1247 26.3915 64.5416 25.1916 64.5416 23.6615V22.0599H64.4758C63.9162 22.8304 63.1591 23.4579 62.2045 23.9422C61.25 24.4266 60.1253 24.6687 58.8306 24.6687C56.5594 24.6687 54.6667 23.8652 53.1525 22.258C51.6493 20.6398 50.8978 18.5318 50.8978 15.934C50.8978 13.3581 51.6603 11.2501 53.1854 9.60991C54.7215 7.95872 56.6801 7.13313 59.061 7.13313C60.246 7.13313 61.3323 7.3753 62.3197 7.85965C63.3182 8.344 64.0863 8.98246 64.6239 9.77503H65.6772L64.6897 10.9309V7.59546H68.8372V23.3313C68.8372 26.0943 68.0307 28.2298 66.4178 29.7379C64.8159 31.246 62.5995 32 59.7687 32ZM59.9004 21.0526C61.2609 21.0526 62.3911 20.5848 63.2908 19.6491C64.2015 18.7024 64.6513 17.453 64.6404 15.9009C64.6404 14.3598 64.1905 13.1269 63.2908 12.2023C62.3911 11.2666 61.2554 10.7988 59.8839 10.7988C58.5234 10.7988 57.3933 11.2666 56.4935 12.2023C55.5938 13.1379 55.144 14.3763 55.144 15.9174C55.144 17.5026 55.5883 18.7575 56.4771 19.6821C57.3768 20.5958 58.5179 21.0526 59.9004 21.0526Z" fill="#C1182E"/>
<path d="M73.3586 24.7018V1.05676H77.6377V10.1053H77.7035C78.2082 9.21362 78.9489 8.49811 79.9254 7.95872C80.9019 7.40832 81.9772 7.13313 83.1512 7.13313C85.0604 7.13313 86.558 7.71104 87.6443 8.86687C88.7305 10.0227 89.2736 11.5803 89.2736 13.5397V24.7018H84.9122V14.547C84.9122 13.3911 84.627 12.4885 84.0564 11.839C83.4968 11.1785 82.6629 10.8483 81.5548 10.8483C80.4905 10.8483 79.5798 11.2611 78.8227 12.0867C78.0766 12.9123 77.7035 13.9305 77.7035 15.1414V24.7018H73.3586Z" fill="#C1182E"/>
<path d="M99.8018 25.1806C98.2108 25.1806 96.9435 24.7403 95.9999 23.8596C95.0563 22.968 94.5845 21.6305 94.5845 19.8473V3.10423H98.9295V19.2528C98.9295 20.0784 99.0941 20.6784 99.4232 21.0526C99.7634 21.4159 100.252 21.603 100.888 21.614C101.129 21.614 101.365 21.592 101.596 21.548C101.826 21.504 102.106 21.4324 102.435 21.3333C102.764 21.2233 102.929 21.1682 102.929 21.1682V24.6192C102.929 24.6192 102.731 24.6797 102.336 24.8008C101.952 24.9219 101.557 25.0155 101.151 25.0815C100.745 25.1476 100.295 25.1806 99.8018 25.1806ZM91.9841 11.1125V7.59546H102.912V11.1125H91.9841Z" fill="#C1182E"/>
<path d="M112.477 24.7018L103.853 1.05676H108.61L114.107 16.7265L114.699 18.5428H114.765L115.341 16.743L120.871 1.05676H125.529L116.641 24.7018H112.477Z" fill="#C1182E"/>
<path d="M128.154 24.7018V7.59546H132.499V24.7018H128.154ZM130.326 5.13519C129.613 5.13519 129.004 4.88751 128.499 4.39216C127.995 3.88579 127.742 3.27485 127.742 2.55934C127.742 1.82181 127.995 1.21087 128.499 0.726523C129.004 0.242174 129.613 0 130.326 0C131.072 0 131.687 0.242174 132.17 0.726523C132.663 1.21087 132.91 1.82181 132.91 2.55934C132.91 3.27485 132.663 3.88579 132.17 4.39216C131.687 4.88751 131.072 5.13519 130.326 5.13519Z" fill="#C1182E"/>
<path d="M143.531 25.1806C142.324 25.1806 141.281 25.0485 140.404 24.7843C139.537 24.5201 138.769 24.1348 138.099 23.6285C137.43 23.1111 136.887 22.5497 136.47 21.9443C136.064 21.3278 135.861 21.0196 135.861 21.0196L138.774 19.1042C138.774 19.1042 138.928 19.3244 139.235 19.7647C139.553 20.205 139.921 20.5848 140.338 20.904C140.755 21.2233 141.227 21.4709 141.753 21.6471C142.28 21.8122 142.905 21.8947 143.629 21.8947C144.518 21.8947 145.226 21.7296 145.753 21.3994C146.29 21.0691 146.559 20.5958 146.559 19.9794C146.559 19.4069 146.323 18.9666 145.851 18.6584C145.379 18.3502 144.348 18.0089 142.757 17.6347C140.552 17.1173 138.972 16.4238 138.017 15.5542C137.074 14.6846 136.602 13.5838 136.602 12.2518C136.602 10.6887 137.249 9.44479 138.544 8.52012C139.839 7.59546 141.468 7.13313 143.432 7.13313C144.441 7.13313 145.33 7.2377 146.098 7.44685C146.877 7.64499 147.568 7.95322 148.172 8.37152C148.775 8.77881 149.275 9.23564 149.67 9.742C150.076 10.2484 150.279 10.5015 150.279 10.5015L147.514 12.483C147.514 12.483 147.376 12.3234 147.102 12.0041C146.828 11.6739 146.499 11.3822 146.115 11.129C145.731 10.8758 145.314 10.6942 144.864 10.5841C144.414 10.463 143.926 10.4025 143.399 10.4025C142.576 10.4025 141.918 10.5676 141.424 10.8978C140.93 11.2171 140.683 11.6133 140.683 12.0867C140.683 12.6151 140.919 13.0389 141.391 13.3581C141.874 13.6663 142.938 14.0131 144.584 14.3983C146.767 14.9047 148.326 15.5817 149.258 16.4293C150.202 17.2659 150.674 18.3722 150.674 19.7482C150.674 21.4104 150.015 22.7313 148.699 23.711C147.382 24.6907 145.659 25.1806 143.531 25.1806Z" fill="#C1182E"/>
<path d="M159.24 25.1806C157.386 25.1806 155.872 24.6742 154.698 23.6615C153.535 22.6378 152.953 21.3058 152.953 19.6656C152.953 17.9264 153.623 16.5449 154.961 15.5212C156.3 14.4974 158.044 13.9856 160.195 13.9856C161.051 13.9856 161.879 14.0736 162.68 14.2497C163.492 14.4259 164.189 14.657 164.77 14.9432V13.9525C164.77 12.8848 164.397 12.0427 163.651 11.4262C162.916 10.8098 161.972 10.5015 160.82 10.5015C160.162 10.5015 159.591 10.5786 159.109 10.7327C158.626 10.8868 158.181 11.0905 157.776 11.3437C157.37 11.5968 156.986 11.894 156.623 12.2353C156.261 12.5765 156.08 12.7472 156.08 12.7472L153.513 10.4025C153.513 10.4025 153.787 10.1603 154.336 9.67595C154.884 9.1806 155.488 8.74028 156.146 8.355C156.815 7.95872 157.562 7.656 158.384 7.44685C159.218 7.2377 160.178 7.13313 161.265 7.13313C163.657 7.13313 165.544 7.72755 166.926 8.91641C168.309 10.1053 169 11.7675 169 13.903V24.7018H164.853V21.0526L165.84 22.3571H164.77C164.222 23.2157 163.465 23.9037 162.499 24.4211C161.533 24.9274 160.447 25.1806 159.24 25.1806ZM160.376 22.0599C161.671 22.0599 162.724 21.6085 163.536 20.7059C164.359 19.8032 164.77 18.7355 164.77 17.5026V17.42C164.309 17.1448 163.75 16.9247 163.092 16.7595C162.433 16.5834 161.731 16.4954 160.985 16.4954C159.811 16.4954 158.867 16.7375 158.154 17.2219C157.452 17.7062 157.101 18.4217 157.101 19.3684C157.101 20.216 157.402 20.8765 158.006 21.3498C158.62 21.8232 159.41 22.0599 160.376 22.0599Z" fill="#C1182E"/>
</svg>
